<svg id="visual" viewBox="0 0 900 600" width="900" height="600" xmlns="http://www.w3.org/2000/svg" xmlns:xlink="http://www.w3.org/1999/xlink" version="1.1"><rect x="0" y="0" width="900" height="600" fill="#4B2E1F"></rect><path d="M494 600L497.7 588.8C501.3 577.7 508.7 555.3 527.7 533.2C546.7 511 577.3 489 589.5 466.8C601.7 444.7 595.3 422.3 580.8 400C566.3 377.7 543.7 355.3 538.3 333.2C533 311 545 289 548.5 266.8C552 244.7 547 222.3 533.7 200C520.3 177.7 498.7 155.3 456.5 133.2C414.3 111 351.7 89 371.5 66.8C391.3 44.7 493.7 22.3 544.8 11.2L596 0L900 0L900 11.2C900 22.3 900 44.7 900 66.8C900 89 900 111 900 133.2C900 155.3 900 177.7 900 200C900 222.3 900 244.7 900 266.8C900 289 900 311 900 333.2C900 355.3 900 377.7 900 400C900 422.3 900 444.7 900 466.8C900 489 900 511 900 533.2C900 555.3 900 577.7 900 588.8L900 600Z" fill="#F5E6D3"></path></svg>